<svg width="39" height="57" viewBox="0 0 39 57" fill="none" xmlns="http://www.w3.org/2000/svg">
<path d="M1.85068 42.5684H19.291H36.7313" stroke="#7EB693" stroke-width="2" stroke-miterlimit="10"/>
<path d="M5.79099 49L19.291 49L32.791 49" stroke="#7EB693" stroke-width="2" stroke-miterlimit="10"/>
<path d="M18.791 2L18.791 9L18.791 16" stroke="#7EB693" stroke-width="2" stroke-miterlimit="10"/>
<path d="M18.8656 15.2842V41.7158" stroke="#7EB693" stroke-width="2" stroke-miterlimit="10"/>
<path d="M29.9253 5.05273L18.8656 16.1369" stroke="#7EB693" stroke-width="2" stroke-miterlimit="10"/>
<path d="M34.179 9.31592L18.8656 24.6633" stroke="#7EB693" stroke-width="2" stroke-miterlimit="10"/>
<path d="M36.7312 16.1367L18.8656 33.1893" stroke="#7EB693" stroke-width="2" stroke-miterlimit="10"/>
<path d="M37.582 23.8105L18.8656 42.5684" stroke="#7EB693" stroke-width="2" stroke-miterlimit="10"/>
<path d="M37.582 32.3369L27.3731 42.5685" stroke="#7EB693" stroke-width="2" stroke-miterlimit="10"/>
<path d="M0.999969 32.3369L11.2089 42.5685" stroke="#7EB693" stroke-width="2" stroke-miterlimit="10"/>
<path d="M8.65665 5.05273L18.8656 16.1369" stroke="#7EB693" stroke-width="2" stroke-miterlimit="10"/>
<path d="M4.40292 9.31592L18.8656 24.6633" stroke="#7EB693" stroke-width="2" stroke-miterlimit="10"/>
<path d="M1.85068 15.2842L18.8656 33.1894" stroke="#7EB693" stroke-width="2" stroke-miterlimit="10"/>
<path d="M0.999969 22.958L18.8656 41.7159" stroke="#7EB693" stroke-width="2" stroke-miterlimit="10"/>
<path d="M19.291 55.3579C9.19015 55.3579 0.999969 46.9056 0.999969 36.4772V20.5227C0.999969 10.0963 9.19015 1.64209 19.291 1.64209C29.3937 1.64209 37.5821 10.0963 37.5821 20.5227V36.4772C37.5839 46.9056 29.3937 55.3579 19.291 55.3579Z" stroke="#7EB693" stroke-width="2" stroke-miterlimit="10"/>
</svg>
