<svg width="200" height="57" viewBox="0 0 200 57" fill="none" xmlns="http://www.w3.org/2000/svg">
<path d="M70.3945 27.8613V29.1416C70.3945 31.195 70.1162 33.0381 69.5595 34.6709C69.0029 36.3037 68.2174 37.6953 67.2031 38.8457C66.1888 39.9837 64.9765 40.8558 63.5664 41.4619C62.1686 42.068 60.6162 42.3711 58.9091 42.3711C57.2145 42.3711 55.6621 42.068 54.2519 41.4619C52.8541 40.8558 51.6419 39.9837 50.6152 38.8457C49.5885 37.6953 48.7907 36.3037 48.2216 34.6709C47.665 33.0381 47.3867 31.195 47.3867 29.1416V27.8613C47.3867 25.7956 47.665 23.9525 48.2216 22.332C48.7783 20.6992 49.5638 19.3076 50.5781 18.1572C51.6048 17.0068 52.817 16.1286 54.2148 15.5225C55.625 14.9163 57.1774 14.6133 58.872 14.6133C60.5791 14.6133 62.1315 14.9163 63.5293 15.5225C64.9394 16.1286 66.1517 17.0068 67.166 18.1572C68.1927 19.3076 68.9843 20.6992 69.541 22.332C70.11 23.9525 70.3945 25.7956 70.3945 27.8613ZM64.7724 29.1416V27.8242C64.7724 26.3893 64.6425 25.1276 64.3828 24.0391C64.123 22.9505 63.7396 22.0352 63.2324 21.293C62.7252 20.5508 62.1067 19.9941 61.3769 19.623C60.6471 19.2396 59.8121 19.0479 58.872 19.0479C57.9319 19.0479 57.097 19.2396 56.3672 19.623C55.6497 19.9941 55.0374 20.5508 54.5302 21.293C54.0355 22.0352 53.6582 22.9505 53.3984 24.0391C53.1386 25.1276 53.0088 26.3893 53.0088 27.8242V29.1416C53.0088 30.5641 53.1386 31.8258 53.3984 32.9268C53.6582 34.0153 54.0416 34.9368 54.5488 35.6914C55.056 36.4336 55.6744 36.9964 56.4043 37.3799C57.1341 37.7633 57.969 37.9551 58.9091 37.9551C59.8493 37.9551 60.6842 37.7633 61.414 37.3799C62.1438 36.9964 62.7562 36.4336 63.2509 35.6914C63.7457 34.9368 64.123 34.0153 64.3828 32.9268C64.6425 31.8258 64.7724 30.5641 64.7724 29.1416ZM79.4121 26.3027V42H74.0683V21.9238H79.0966L79.4121 26.3027ZM85.4609 21.7939L85.3681 26.748C85.1084 26.7109 84.7929 26.68 84.4218 26.6553C84.0631 26.6182 83.7353 26.5996 83.4384 26.5996C82.6839 26.5996 82.0283 26.6986 81.4716 26.8965C80.9274 27.082 80.4697 27.3604 80.0986 27.7314C79.7399 28.1025 79.4677 28.554 79.2822 29.0859C79.109 29.6178 79.0101 30.224 78.9853 30.9043L77.9091 30.5703C77.9091 29.2715 78.039 28.0778 78.2988 26.9893C78.5586 25.8883 78.9358 24.9297 79.4306 24.1133C79.9378 23.2969 80.5563 22.666 81.2861 22.2207C82.0159 21.7754 82.8509 21.5527 83.791 21.5527C84.0879 21.5527 84.3909 21.5775 84.7002 21.627C85.0094 21.6641 85.263 21.7197 85.4609 21.7939ZM100.323 21.9238H105.166V41.332C105.166 43.1628 104.758 44.7152 103.941 45.9893C103.137 47.2757 102.012 48.2467 100.564 48.9023C99.1172 49.5703 97.4349 49.9043 95.5175 49.9043C94.6764 49.9043 93.7858 49.793 92.8457 49.5703C91.9179 49.3477 91.0273 49.0013 90.1738 48.5312C89.3327 48.0612 88.6276 47.4674 88.0586 46.75L90.415 43.5957C91.0335 44.3132 91.7509 44.8698 92.5674 45.2656C93.3838 45.6738 94.2868 45.8779 95.2763 45.8779C96.2412 45.8779 97.0576 45.6986 97.7256 45.3398C98.3935 44.9935 98.9069 44.4801 99.2656 43.7998C99.6243 43.1318 99.8037 42.3216 99.8037 41.3691V26.5625L100.323 21.9238ZM86.8154 32.2031V31.8135C86.8154 30.2796 87.0009 28.888 87.372 27.6387C87.7555 26.377 88.2936 25.2946 88.9863 24.3916C89.6914 23.4886 90.5449 22.7897 91.5468 22.2949C92.5488 21.8001 93.6806 21.5527 94.9424 21.5527C96.2783 21.5527 97.3978 21.8001 98.3008 22.2949C99.2037 22.7897 99.9459 23.4948 100.527 24.4102C101.109 25.3132 101.56 26.3831 101.882 27.6201C102.216 28.8447 102.476 30.1868 102.661 31.6465V32.5C102.476 33.8978 102.197 35.1966 101.826 36.3965C101.455 37.5964 100.966 38.6478 100.36 39.5508C99.7542 40.4414 98.9996 41.1341 98.0966 41.6289C97.206 42.1237 96.1422 42.3711 94.9052 42.3711C93.6683 42.3711 92.5488 42.1175 91.5468 41.6104C90.5573 41.1032 89.7099 40.3919 89.0049 39.4766C88.2998 38.5612 87.7555 37.485 87.372 36.248C87.0009 35.0111 86.8154 33.6628 86.8154 32.2031ZM92.1591 31.8135V32.2031C92.1591 33.0319 92.2396 33.805 92.4004 34.5225C92.5612 35.2399 92.8086 35.877 93.1425 36.4336C93.4889 36.9779 93.9157 37.4046 94.4228 37.7139C94.9424 38.0107 95.5547 38.1592 96.2597 38.1592C97.2369 38.1592 98.0348 37.9551 98.6533 37.5469C99.2718 37.1263 99.7356 36.5511 100.045 35.8213C100.354 35.0915 100.533 34.2503 100.583 33.2979V30.8672C100.558 30.0879 100.453 29.389 100.268 28.7705C100.082 28.1396 99.8222 27.6016 99.4883 27.1562C99.1543 26.7109 98.7213 26.3646 98.1894 26.1172C97.6575 25.8698 97.0267 25.7461 96.2968 25.7461C95.5918 25.7461 94.9795 25.9069 94.4599 26.2285C93.9528 26.5378 93.526 26.9645 93.1797 27.5088C92.8457 28.0531 92.5921 28.6963 92.4189 29.4385C92.2457 30.1683 92.1591 30.96 92.1591 31.8135ZM120.158 37.4727V28.5293C120.158 27.8861 120.053 27.3356 119.843 26.8779C119.632 26.4079 119.305 26.043 118.859 25.7832C118.426 25.5234 117.864 25.3936 117.171 25.3936C116.577 25.3936 116.064 25.4987 115.631 25.709C115.198 25.9069 114.864 26.1976 114.629 26.5811C114.394 26.9521 114.276 27.3913 114.276 27.8984H108.933C108.933 27.0449 109.131 26.2347 109.526 25.4678C109.922 24.7008 110.497 24.0267 111.252 23.4453C112.006 22.8516 112.903 22.3877 113.942 22.0537C114.994 21.7197 116.169 21.5527 117.468 21.5527C119.026 21.5527 120.412 21.8125 121.624 22.332C122.836 22.8516 123.789 23.6309 124.481 24.6699C125.186 25.709 125.539 27.0078 125.539 28.5664V37.1572C125.539 38.2581 125.607 39.1611 125.743 39.8662C125.879 40.5589 126.077 41.165 126.337 41.6846V42H120.937C120.678 41.4557 120.48 40.7754 120.344 39.959C120.22 39.1302 120.158 38.3014 120.158 37.4727ZM120.863 29.7725L120.9 32.7969H117.913C117.208 32.7969 116.596 32.8773 116.076 33.0381C115.557 33.1989 115.13 33.4277 114.796 33.7246C114.462 34.0091 114.214 34.3431 114.054 34.7266C113.905 35.11 113.831 35.5306 113.831 35.9883C113.831 36.446 113.936 36.8604 114.146 37.2314C114.357 37.5902 114.66 37.8747 115.056 38.085C115.451 38.2829 115.915 38.3818 116.447 38.3818C117.251 38.3818 117.95 38.221 118.544 37.8994C119.138 37.5778 119.595 37.182 119.917 36.7119C120.251 36.2419 120.424 35.7965 120.436 35.376L121.847 37.6396C121.649 38.1468 121.377 38.6725 121.03 39.2168C120.696 39.7611 120.27 40.2744 119.75 40.7568C119.23 41.2269 118.606 41.6165 117.876 41.9258C117.146 42.2227 116.28 42.3711 115.278 42.3711C114.004 42.3711 112.848 42.1175 111.809 41.6104C110.782 41.0908 109.965 40.3796 109.359 39.4766C108.766 38.5612 108.469 37.5221 108.469 36.3594C108.469 35.3079 108.667 34.374 109.062 33.5576C109.458 32.7412 110.04 32.0547 110.807 31.498C111.586 30.929 112.557 30.5023 113.72 30.2178C114.882 29.9209 116.231 29.7725 117.765 29.7725H120.863ZM134.891 26.21V42H129.547V21.9238H134.557L134.891 26.21ZM134.111 31.2568H132.664C132.664 29.7725 132.856 28.4365 133.239 27.249C133.623 26.0492 134.161 25.0286 134.853 24.1875C135.546 23.334 136.369 22.6846 137.321 22.2393C138.286 21.7816 139.362 21.5527 140.55 21.5527C141.49 21.5527 142.35 21.6888 143.129 21.9609C143.908 22.2331 144.576 22.666 145.133 23.2598C145.702 23.8535 146.135 24.639 146.432 25.6162C146.741 26.5934 146.895 27.7871 146.895 29.1973V42H141.515V29.1787C141.515 28.2881 141.391 27.5954 141.144 27.1006C140.896 26.6058 140.531 26.2594 140.049 26.0615C139.579 25.8512 138.997 25.7461 138.305 25.7461C137.587 25.7461 136.963 25.8883 136.431 26.1729C135.911 26.4574 135.478 26.8532 135.132 27.3604C134.798 27.8551 134.544 28.4365 134.371 29.1045C134.198 29.7725 134.111 30.4899 134.111 31.2568ZM156.6 21.9238V42H151.237V21.9238H156.6ZM150.903 16.6914C150.903 15.9121 151.175 15.2689 151.72 14.7617C152.264 14.2546 152.994 14.001 153.909 14.001C154.812 14.001 155.536 14.2546 156.08 14.7617C156.637 15.2689 156.915 15.9121 156.915 16.6914C156.915 17.4707 156.637 18.1139 156.08 18.6211C155.536 19.1283 154.812 19.3818 153.909 19.3818C152.994 19.3818 152.264 19.1283 151.72 18.6211C151.175 18.1139 150.903 17.4707 150.903 16.6914ZM169.31 38.1963C169.965 38.1963 170.547 38.0726 171.054 37.8252C171.561 37.5654 171.957 37.2067 172.241 36.749C172.538 36.279 172.693 35.7285 172.705 35.0977H177.733C177.721 36.5078 177.344 37.7633 176.602 38.8643C175.859 39.9528 174.864 40.8125 173.614 41.4434C172.365 42.0618 170.967 42.3711 169.421 42.3711C167.862 42.3711 166.502 42.1113 165.339 41.5918C164.188 41.0723 163.23 40.3548 162.463 39.4395C161.696 38.5117 161.121 37.4355 160.737 36.2109C160.354 34.974 160.162 33.6504 160.162 32.2402V31.7021C160.162 30.2796 160.354 28.9561 160.737 27.7314C161.121 26.4945 161.696 25.4183 162.463 24.5029C163.23 23.5752 164.188 22.8516 165.339 22.332C166.489 21.8125 167.838 21.5527 169.384 21.5527C171.029 21.5527 172.47 21.8682 173.707 22.499C174.956 23.1299 175.934 24.0329 176.639 25.208C177.356 26.3708 177.721 27.75 177.733 29.3457H172.705C172.693 28.6777 172.55 28.0716 172.278 27.5273C172.019 26.9831 171.635 26.5501 171.128 26.2285C170.633 25.8945 170.021 25.7275 169.291 25.7275C168.512 25.7275 167.875 25.8945 167.38 26.2285C166.885 26.5501 166.502 26.9954 166.229 27.5645C165.957 28.1211 165.766 28.7581 165.654 29.4756C165.555 30.1807 165.506 30.9229 165.506 31.7021V32.2402C165.506 33.0195 165.555 33.7679 165.654 34.4854C165.753 35.2028 165.939 35.8398 166.211 36.3965C166.495 36.9531 166.885 37.3923 167.38 37.7139C167.875 38.0355 168.518 38.1963 169.31 38.1963ZM186.176 13.4814V42H180.832V13.4814H186.176ZM198.83 21.9238L190.109 31.8691L185.434 36.6006L183.485 32.7412L187.196 28.0283L192.41 21.9238H198.83ZM193.282 42L187.345 32.7227L191.037 29.4941L199.442 42H193.282Z" fill="#274C5B"/>
<path d="M1.85068 42.5684H19.291H36.7313" stroke="#7EB693" stroke-width="2" stroke-miterlimit="10"/>
<path d="M5.79099 49L19.291 49L32.791 49" stroke="#7EB693" stroke-width="2" stroke-miterlimit="10"/>
<path d="M18.791 2L18.791 9L18.791 16" stroke="#7EB693" stroke-width="2" stroke-miterlimit="10"/>
<path d="M18.8656 15.2842V41.7158" stroke="#7EB693" stroke-width="2" stroke-miterlimit="10"/>
<path d="M29.9253 5.05273L18.8656 16.1369" stroke="#7EB693" stroke-width="2" stroke-miterlimit="10"/>
<path d="M34.179 9.31592L18.8656 24.6633" stroke="#7EB693" stroke-width="2" stroke-miterlimit="10"/>
<path d="M36.7312 16.1367L18.8656 33.1893" stroke="#7EB693" stroke-width="2" stroke-miterlimit="10"/>
<path d="M37.582 23.8105L18.8656 42.5684" stroke="#7EB693" stroke-width="2" stroke-miterlimit="10"/>
<path d="M37.582 32.3369L27.3731 42.5685" stroke="#7EB693" stroke-width="2" stroke-miterlimit="10"/>
<path d="M0.999969 32.3369L11.2089 42.5685" stroke="#7EB693" stroke-width="2" stroke-miterlimit="10"/>
<path d="M8.65665 5.05273L18.8656 16.1369" stroke="#7EB693" stroke-width="2" stroke-miterlimit="10"/>
<path d="M4.40292 9.31592L18.8656 24.6633" stroke="#7EB693" stroke-width="2" stroke-miterlimit="10"/>
<path d="M1.85068 15.2842L18.8656 33.1894" stroke="#7EB693" stroke-width="2" stroke-miterlimit="10"/>
<path d="M0.999969 22.958L18.8656 41.7159" stroke="#7EB693" stroke-width="2" stroke-miterlimit="10"/>
<path d="M19.291 55.3579C9.19015 55.3579 0.999969 46.9056 0.999969 36.4772V20.5227C0.999969 10.0963 9.19015 1.64209 19.291 1.64209C29.3937 1.64209 37.5821 10.0963 37.5821 20.5227V36.4772C37.5839 46.9056 29.3937 55.3579 19.291 55.3579Z" stroke="#7EB693" stroke-width="2" stroke-miterlimit="10"/>
</svg>
